<?xml version="1.0" encoding="utf-8"?>
<!-- Generator: Adobe Illustrator 16.0.0, SVG Export Plug-In . SVG Version: 6.00 Build 0)  -->
<!DOCTYPE svg PUBLIC "-//W3C//DTD SVG 1.1//EN" "http://www.w3.org/Graphics/SVG/1.1/DTD/svg11.dtd">
<svg version="1.1" id="Layer_1" xmlns="http://www.w3.org/2000/svg" xmlns:xlink="http://www.w3.org/1999/xlink" x="0px" y="0px"
	 width="251px" height="337px" viewBox="0 0 251 337" enable-background="new 0 0 251 337" xml:space="preserve">
<line fill="none" stroke="#808285" stroke-miterlimit="10" x1="55.141" y1="290.63" x2="66.54" y2="259.769"/>
<line fill="none" stroke="#808285" stroke-miterlimit="10" x1="55.141" y1="290.63" x2="76.32" y2="315.793"/>
<line fill="none" stroke="#808285" stroke-miterlimit="10" x1="55.141" y1="290.631" x2="43.737" y2="259.769"/>
<line fill="none" stroke="#808285" stroke-miterlimit="10" x1="55.141" y1="290.63" x2="83.317" y2="273.648"/>
<line fill="none" stroke="#808285" stroke-miterlimit="10" x1="55.141" y1="290.63" x2="87.68" y2="295.455"/>
<line fill="none" stroke="#808285" stroke-miterlimit="10" x1="55.141" y1="290.63" x2="55.141" y2="323.525"/>
<line fill="none" stroke="#808285" stroke-miterlimit="10" x1="55.141" y1="290.63" x2="34.088" y2="315.793"/>
<line fill="none" stroke="#808285" stroke-miterlimit="10" x1="55.141" y1="290.63" x2="22.246" y2="297.5"/>
<line fill="none" stroke="#808285" stroke-miterlimit="10" x1="55.141" y1="290.63" x2="26.089" y2="275.199"/>
<line fill="none" stroke="#808285" stroke-miterlimit="10" x1="64.79" y1="216.063" x2="38.913" y2="227.467"/>
<rect x="15.229" y="65.193" fill="none" width="107.017" height="21.491"/>
<text transform="matrix(1 0 0 1 15.2285 78.0806)" font-family="'ArialMT'" font-size="18">地址：</text>
<rect x="59.965" y="91.145" fill="none" width="56.14" height="13.158"/>
<text transform="matrix(1 0 0 1 59.9653 99.021)" font-family="'ArialMT'" font-size="11">发送</text>
<circle fill="#E7442E" cx="43.737" cy="97.21" r="4.824"/>
<circle fill="#5AB748" cx="43.737" cy="122.21" r="4.824"/>
<circle fill="#FBD834" cx="43.737" cy="147.21" r="4.824"/>
<rect x="59.965" y="115.888" fill="none" width="56.14" height="13.158"/>
<text transform="matrix(1 0 0 1 59.9653 123.7642)" font-family="'ArialMT'" font-size="11">接收</text>
<rect x="59.965" y="140.631" fill="none" width="97.368" height="13.158"/>
<text transform="matrix(1 0 0 1 59.9653 148.5073)" font-family="'ArialMT'" font-size="11">即发又收</text>
<rect x="15.228" y="177.702" fill="none" width="125.439" height="21.491"/>
<text transform="matrix(1 0 0 1 15.228 190.5894)" font-family="'ArialMT'" font-size="18">说明：</text>
<rect x="105.08" y="209.894" fill="none" width="128.508" height="25.499"/>
<text transform="matrix(1 0 0 1 105.0796 217.7695)"><tspan x="0" y="0" font-family="'ArialMT'" font-size="11">一地址发</tspan><tspan x="0" y="13.2" font-family="'ArialMT'" font-size="11">一收一找零</tspan></text>
<circle fill="#FBD834" cx="38.913" cy="227.467" r="4.824"/>
<circle fill="#5AB748" cx="64.79" cy="216.063" r="4.824"/>
<line fill="none" x1="43.737" y1="227.467" x2="59.965" y2="220.888"/>
<g>
	<circle fill="#5AB748" cx="83.317" cy="273.647" r="4.824"/>
	<circle fill="#5AB748" cx="66.089" cy="259.602" r="4.824"/>
	<circle fill="#5AB748" cx="43.086" cy="260.014" r="4.824"/>
	<circle fill="#5AB748" cx="26.434" cy="274.557" r="4.824"/>
	<circle fill="#5AB748" cx="22.894" cy="297.162" r="4.824"/>
	<circle fill="#5AB748" cx="34.414" cy="316.175" r="4.824"/>
	<circle fill="#5AB748" cx="55.792" cy="323.52" r="4.825"/>
	<circle fill="#5AB748" cx="76.794" cy="315.395" r="4.824"/>
	<circle fill="#5AB748" cx="87.612" cy="295.92" r="4.824"/>
	<circle fill="#5AB748" cx="83.317" cy="273.647" r="4.824"/>
</g>
<circle fill="#E7442E" cx="55.14" cy="290.63" r="4.824"/>
<rect x="105.08" y="269.39" fill="none" width="128.508" height="25.499"/>
<text transform="matrix(1 0 0 1 105.0796 277.2656)"><tspan x="0" y="0" font-family="'ArialMT'" font-size="11">一地址发</tspan><tspan x="0" y="13.2" font-family="'ArialMT'" font-size="11">九地址收</tspan></text>
<rect x="83.316" y="15.193" fill="none" width="65.579" height="22.807"/>
<text transform="matrix(1 0 0 1 83.3159 28.0806)" fill="#58595B" font-family="'ArialMT'" font-size="18"></text>
</svg>
